<?xml version="1.0" encoding="UTF-8" standalone="no"?>
<!-- Created with Inkscape (http://www.inkscape.org/) -->

<svg
   width="210mm"
   height="297mm"
   viewBox="0 0 210 297"
   version="1.1"
   id="svg1"
   xmlns="http://www.w3.org/2000/svg"
   xmlns:svg="http://www.w3.org/2000/svg">
  <defs
     id="defs1" />
  <g
     id="layer1">
    <g
       id="g469"
       transform="matrix(0.26458333,0,0,0.26458333,-934.15378,-471.25201)">
      <path
         d="m 3644.21,1794.96 c 6.2,6.2 10.87,13.5 13.85,21.45 v -35.29 h -35.29 c 7.94,2.98 15.25,7.64 21.45,13.85 z"
         id="path440" />
      <path
         d="m 3544.51,1794.96 c 6.2,-6.2 13.5,-10.87 21.45,-13.85 h -35.29 v 35.29 c 2.98,-7.94 7.64,-15.25 13.85,-21.45 z"
         id="path441" />
      <path
         d="m 3565.96,2021.48 c -7.94,-2.98 -15.25,-7.64 -21.45,-13.85 -2.04,-2.04 -3.91,-4.21 -5.62,-6.47 l -8.22,18.54 v 1.78 z"
         id="path442" />
      <path
         d="m 3536.36,1997.52 c -2.3,-3.58 -4.21,-7.37 -5.69,-11.33 v 24.17 z"
         id="path443" />
      <path
         d="m 3658.05,1986.19 c -2.98,7.94 -7.64,15.25 -13.85,21.45 -6.2,6.2 -13.5,10.87 -21.45,13.85 h 35.29 v -35.29 z"
         id="path444" />
      <rect
         x="3661.8501"
         y="1879.3101"
         width="22.91"
         height="39.43"
         id="rect444" />
      <path
         d="m 3655.46,1820.54 c -3.96,-12.54 -12.23,-23.21 -23.03,-30.28 l -11.64,26.24 v 4.04 z"
         id="path445" />
      <path
         d="m 3629.16,1788.28 c -2.66,-1.49 -5.45,-2.78 -8.36,-3.83 v 22.7 z"
         id="path446" />
      <path
         d="m 3574.29,1876.43 c 3.74,-0.58 7.5,-0.85 11.24,-0.9 v -0.02 h 4.94 l 22.7,-51.18 h -38.85 z"
         id="path447" />
      <polygon
         points="3616.95,1928.41 3595.34,1978.26 3616.93,1978.26 "
         id="polygon447" />
      <path
         d="m 3620.76,1881.66 v 28.46 l 10.55,-24.37 c -2.1,-1.09 -4.27,-2.05 -6.5,-2.84 -1.34,-0.48 -2.69,-0.88 -4.06,-1.25 z"
         id="path448" />
      <path
         d="m 3656.5,1824.33 h -35.72 l -0.02,53.4 c 1.79,0.46 3.57,0.98 5.33,1.61 2.3,0.82 4.55,1.8 6.73,2.93 l 24.16,-55.73 c -0.15,-0.74 -0.31,-1.48 -0.49,-2.21 z"
         id="path449" />
      <path
         d="m 3636.15,1884.13 c 0.34,0.21 0.69,0.4 1.03,0.62 3.49,2.23 6.68,4.95 9.49,8 0.88,0.95 1.7,1.95 2.5,2.97 2.49,-4.02 4.41,-8.39 5.77,-12.92 2.22,-7.34 3.08,-15.03 3.11,-22.68 v -22.76 c 0,-1.17 -0.05,-2.32 -0.12,-3.47 z"
         id="path450" />
      <path
         d="m 3530.67,1837.37 v 22.81 c 0.03,7.63 0.89,15.31 3.1,22.63 1.19,3.94 2.81,7.76 4.85,11.34 l 30.27,-69.82 h -36.68 c -1,4.19 -1.55,8.55 -1.55,13.04 z"
         id="path451" />
      <path
         d="m 3574.67,1820.54 h 40.18 l 2.15,-4.84 v -32.47 c -4.83,-1.37 -9.93,-2.12 -15.2,-2.12 h -10.03 z"
         id="path452" />
      <path
         d="m 3533.26,1820.54 h 37.28 l 17.1,-39.43 h -0.71 c -25.09,0 -46.47,16.64 -53.67,39.43 z"
         id="path453" />
      <path
         d="m 3602.52,1922.52 h -16.99 c -3.75,-0.06 -7.52,-0.34 -11.26,-0.92 l -0.03,56.65 h 16.97 l 24.67,-56.9 c -4.43,0.78 -8.91,1.14 -13.36,1.17 z"
         id="path454" />
      <path
         d="m 3638.89,1978.26 h 17.61 c 1,-4.19 1.55,-8.55 1.55,-13.04 v -27.31 c 0,-1.22 -0.04,-2.44 -0.09,-3.66 l -19.08,44 z"
         id="path455" />
      <path
         d="m 3616.97,1876.88 0.02,-51.82 -22.38,50.45 h 7.9 c 4.81,0.03 9.66,0.44 14.45,1.36 z"
         id="path456" />
      <path
         d="m 3616.91,2019.39 0.02,-37.34 h -23.23 l -16.71,38.53 c 3.23,0.58 6.55,0.9 9.94,0.9 h 14.87 c 5.23,0 10.3,-0.74 15.11,-2.09 z"
         id="path457" />
      <path
         d="m 3570.35,1920.87 c -2.6,-0.56 -5.19,-1.26 -7.73,-2.17 -3.86,-1.37 -7.6,-3.17 -11.09,-5.41 -3.49,-2.23 -6.68,-4.95 -9.49,-8 -0.88,-0.95 -1.7,-1.95 -2.5,-2.97 -2.49,4.02 -4.41,8.39 -5.77,12.92 -2.22,7.32 -3.07,14.99 -3.1,22.63 v 24.26 h 21.39 l 18.29,-41.25 z"
         id="path458" />
      <path
         d="m 3651.54,1899.02 c 2.79,4.21 4.95,8.8 6.51,13.52 v -27.04 c -1.56,4.72 -3.72,9.31 -6.51,13.52 z"
         id="path459" />
      <path
         d="m 3624.82,1915.13 c 3.61,-1.28 7.08,-2.95 10.3,-5.02 3.23,-2.06 6.17,-4.57 8.76,-7.38 1.08,-1.18 2.08,-2.42 3.04,-3.7 -0.95,-1.28 -1.95,-2.52 -3.04,-3.7 -2.59,-2.82 -5.53,-5.32 -8.76,-7.38 -0.16,-0.1 -0.33,-0.19 -0.49,-0.3 l -12.27,28.29 c 0.82,-0.25 1.65,-0.51 2.46,-0.8 z"
         id="path460" />
      <path
         d="m 3586.44,1918.74 h 15.84 c 4.92,-0.02 9.85,-0.45 14.68,-1.44 l 0.02,-36.55 c -4.84,-0.99 -9.79,-1.43 -14.73,-1.44 h -9.3 l -17.16,38.68 c 3.53,0.5 7.1,0.74 10.66,0.75 z"
         id="path461" />
      <path
         d="m 3562.63,1879.34 c 2.59,-0.92 5.22,-1.63 7.87,-2.2 l 0.03,-47.04 -26.14,60.27 c 2.2,-2.1 4.59,-3.99 7.15,-5.62 3.48,-2.24 7.23,-4.04 11.09,-5.41 z"
         id="path462" />
      <path
         d="m 3538.24,1993.29 12.14,-27.38 h -19.7 c 0.12,9.95 2.86,19.29 7.55,27.38 z"
         id="path463" />
      <polygon
         points="3570.45,1962.12 3570.47,1929.96 3556.21,1962.12 "
         id="polygon463" />
      <path
         d="m 3655.46,1982.05 h -18.22 l -15.5,35.74 c 15.99,-6.11 28.53,-19.33 33.72,-35.74 z"
         id="path464" />
      <polygon
         points="3620.7,2010.66 3633.11,1982.05 3620.72,1982.05 "
         id="polygon464" />
      <path
         d="m 3574.27,1912.04 14.52,-32.73 h -2.31 c -4.08,0.01 -8.16,0.32 -12.19,0.98 z"
         id="path465" />
      <path
         d="m 3637.18,1913.29 c -3.48,2.24 -7.23,4.04 -11.09,5.41 -1.76,0.63 -3.55,1.16 -5.35,1.61 l -0.03,57.94 h 14.04 l 22.54,-51.98 c -0.5,-3.74 -1.25,-7.43 -2.35,-11.04 -1.36,-4.52 -3.28,-8.9 -5.77,-12.92 -0.8,1.02 -1.62,2.02 -2.5,2.97 -2.81,3.05 -6,5.77 -9.49,8 z"
         id="path466" />
      <path
         d="m 3553.6,1910.11 c 3.22,2.07 6.7,3.74 10.3,5.02 2.15,0.77 4.35,1.38 6.58,1.88 l 0.02,-35.99 c -2.23,0.51 -4.44,1.12 -6.6,1.89 -3.61,1.28 -7.08,2.95 -10.3,5.02 -3.23,2.06 -6.17,4.57 -8.76,7.38 -1.08,1.18 -2.08,2.42 -3.04,3.7 0.95,1.28 1.95,2.52 3.04,3.7 2.59,2.82 5.53,5.32 8.76,7.38 z"
         id="path467" />
      <polygon
         points="3574.23,1982.05 3574.22,2017.44 3589.56,1982.05 "
         id="polygon467" />
      <path
         d="m 3530.67,1885.5 v 27.03 c 1.48,-4.48 3.49,-8.83 6.07,-12.86 l -0.43,-0.19 0.47,-1.08 c -2.59,-4.04 -4.62,-8.41 -6.11,-12.91 z"
         id="path468" />
      <path
         d="m 3570.42,2018.99 0.03,-53.08 h -15.93 l -13.85,31.23 c 7.12,10.27 17.56,18.09 29.75,21.86 z"
         id="path469" />
    </g>
  </g>
</svg>
