<svg width="150mm" height="64mm" viewBox="0 0 150 64" xmlns="http://www.w3.org/2000/svg">
  <defs>
    <path id="0-path" d="M33.02 10.433a15.012 15.012 0 0 0-6.093-8.012l-3.08 6.943v1.069zM26.061 1.897A14.817 14.817 0 0 0 23.85.884V6.89zM23.839 26.604v7.53l2.791-6.448a13.589 13.589 0 0 0-1.72-.751 13.972 13.972 0 0 0-1.074-.331zM33.295 11.435h-9.45l-.006 14.129c.474.122.945.26 1.41.426.609.217 1.204.476 1.78.775l6.393-14.745a14.37 14.37 0 0 0-.13-.585zM27.91 27.257c.09.056.183.106.273.164a12.808 12.808 0 0 1 3.173 2.903 14.305 14.305 0 0 0 1.526-3.419c.588-1.942.815-3.976.823-6v-6.022c0-.31-.013-.614-.031-.918zM.003 14.885v6.036c.008 2.018.235 4.05.82 5.987a14.58 14.58 0 0 0 1.283 3l8.009-18.473H.41a14.838 14.838 0 0 0-.41 3.45zM11.644 10.433h10.631l.57-1.281V.56A14.721 14.721 0 0 0 18.821 0H16.17zM.688 10.433h9.864L15.076 0h-.188C8.25 0 2.593 4.403.688 10.433zM28.636 52.163h4.66c.264-1.109.41-2.263.41-3.45v-7.226c0-.323-.011-.646-.025-.969L28.633 52.16zM22.82 63.045l.006-9.88h-6.147L12.26 63.36c.854.153 1.732.238 2.63.238h3.933a14.78 14.78 0 0 0 3.998-.553zM10.501 36.978a16.114 16.114 0 0 1-2.045-.574 14.27 14.27 0 0 1-2.934-1.431 12.808 12.808 0 0 1-3.173-2.903A14.305 14.305 0 0 0 .823 35.49c-.588 1.936-.812 3.966-.82 5.987v6.419h5.66L10.5 36.98zM31.983 31.197a15.003 15.003 0 0 1 1.722 3.577V27.62a15.003 15.003 0 0 1-1.722 3.577zM24.913 35.46c.955-.34 1.873-.781 2.725-1.329A11.785 11.785 0 0 0 30.76 31.2a11.79 11.79 0 0 0-3.122-2.932c-.042-.026-.087-.05-.13-.08l-3.246 7.486c.217-.066.437-.135.651-.212zM8.459 25.99a16.69 16.69 0 0 1 2.082-.582l.008-12.446-6.916 15.946a12.351 12.351 0 0 1 1.891-1.487A14.204 14.204 0 0 1 8.46 25.99zM2.006 56.14l3.212-7.245H.005a14.759 14.759 0 0 0 1.998 7.244zM10.528 47.892l.005-8.509-3.773 8.51zM33.02 53.165H28.2l-4.102 9.457a15.008 15.008 0 0 0 8.922-9.457zM23.823 60.735l3.284-7.57h-3.279zM28.183 34.973a14.204 14.204 0 0 1-2.934 1.431c-.465.167-.94.307-1.415.426l-.008 15.33h3.714l5.964-13.753c-.132-.99-.33-1.966-.622-2.921a14.352 14.352 0 0 0-1.526-3.418 12.808 12.808 0 0 1-3.172 2.902zM6.07 34.131c.851.548 1.772.99 2.725 1.328.569.204 1.15.366 1.74.498l.006-9.522c-.59.134-1.175.296-1.746.5-.955.338-1.874.78-2.725 1.328a11.785 11.785 0 0 0-3.123 2.931 11.79 11.79 0 0 0 3.123 2.932zM11.528 53.165l-.003 9.364 4.059-9.364zM.003 27.62v7.152a15.086 15.086 0 0 1 1.606-3.403l-.114-.05.124-.286a15.165 15.165 0 0 1-1.616-3.416zM10.52 62.94l.008-14.045H6.313l-3.665 8.263a14.996 14.996 0 0 0 7.872 5.784z"/>
    <path id="1-path" d="M11.544 25.22c.99-.153 1.984-.225 2.974-.238v-.005h1.307l6.006-13.542H11.55zM22.83 38.973l-5.717 13.19h5.713zM11.644 10.433h10.631l.57-1.281V.56A14.721 14.721 0 0 0 18.821 0H16.17zM19.013 37.415h-4.495c-.993-.016-1.99-.09-2.98-.244l-.007 14.989h4.49l6.527-15.055a21.219 21.219 0 0 1-3.535.31zM22.836 25.34l.005-13.712-5.92 13.349h2.09c1.272.008 2.555.116 3.823.36zM22.82 63.045l.006-9.88h-6.147L12.26 63.36c.854.153 1.732.238 2.63.238h3.933a14.78 14.78 0 0 0 3.998-.553zM14.758 36.415h4.191a19.746 19.746 0 0 0 3.885-.381l.005-9.67a19.66 19.66 0 0 0-3.897-.382H16.48l-4.54 10.234c.934.132 1.878.196 2.82.199zM8.459 25.99a16.69 16.69 0 0 1 2.082-.582l.008-12.446-6.916 15.946a12.351 12.351 0 0 1 1.891-1.487A14.204 14.204 0 0 1 8.46 25.99zM11.538 34.642l3.842-8.66h-.611c-1.08.003-2.159.085-3.225.26zM11.528 53.165l-.003 9.364 4.059-9.364z"/>
  </defs>

  <use href="#1-path" />
  <use href="#1-path" transform="translate(30, 0)" />
  <use href="#0-path" transform="translate(60, 0)" />
  <use href="#1-path" transform="translate(93, 0)" />
  <use href="#1-path" transform="translate(123, 0)" />
</svg>
