<svg width="150mm" height="64mm" viewBox="0 0 150 64" xmlns="http://www.w3.org/2000/svg">
  <defs>
    <!-- Animated Gradient -->
    <linearGradient id="animatedGradient" gradientTransform="rotate(37, 1, 1)">
      <stop offset="0%" stop-color="#ff0059">
        <animate attributeName="stop-color" values="#ff0059; #3a0ca3; #ff0059" dur="10s" repeatCount="indefinite" />
      </stop>
      <stop offset="16%" stop-color="#ff9900">
        <animate attributeName="stop-color" values="#ff9900; #ff0059; #ff9900" dur="10s" repeatCount="indefinite" />
      </stop>
      <stop offset="32%" stop-color="#00f5d4">
        <animate attributeName="stop-color" values="#00f5d4; #ff9900; #00f5d4" dur="10s" repeatCount="indefinite" />
      </stop>
      <stop offset="48%" stop-color="#6a00f4">
        <animate attributeName="stop-color" values="#6a00f4; #00f5d4; #6a00f4" dur="10s" repeatCount="indefinite" />
      </stop>
      <stop offset="64%" stop-color="#ff006e">
        <animate attributeName="stop-color" values="#ff006e; #00d9f9; #ff006e" dur="10s" repeatCount="indefinite" />
      </stop>
      <stop offset="80%" stop-color="#8338ec">
        <animate attributeName="stop-color" values="#8338ec; #ff006e; #8338ec" dur="10s" repeatCount="indefinite" />
      </stop>
      <stop offset="100%" stop-color="#3a0ca3">
        <animate attributeName="stop-color" values="#3a0ca3; #8338ec; #3a0ca3" dur="10s" repeatCount="indefinite" />
      </stop>
    </linearGradient>
  </defs>

  <!-- Use Paths with Direct Gradient Fill -->
  <g fill="url(#animatedGradient)">
  <path
     id="use5"
     d="m 130.911,25.22 c 0.99,-0.153 1.984,-0.225 2.974,-0.238 v -0.005 h 1.307 l 6.006,-13.542 h -10.281 z m 11.286,13.753 -5.717,13.19 h 5.713 z m -11.186,-28.54 h 10.631 l 0.57,-1.2809998 V 0.56000018 A 14.721,14.721 0 0 0 138.188,1.8251702e-7 h -2.651 z m 7.369,26.982 h -4.495 c -0.993,-0.016 -1.99,-0.09 -2.98,-0.244 l -0.007,14.989 h 4.49 l 6.527,-15.055 a 21.219,21.219 0 0 1 -3.535,0.31 z m 3.823,-12.075 0.005,-13.712 -5.92,13.349 h 2.09 c 1.272,0.008 2.555,0.116 3.823,0.36 z m -0.016,37.705 0.006,-9.88 h -6.147 l -4.419,10.195 c 0.854,0.153 1.732,0.238 2.63,0.238 h 3.933 a 14.78,14.78 0 0 0 3.998,-0.553 z m -8.062,-26.63 h 4.191 a 19.746,19.746 0 0 0 3.885,-0.381 l 0.005,-9.67 a 19.66,19.66 0 0 0 -3.897,-0.382 h -2.462 l -4.54,10.234 c 0.934,0.132 1.878,0.196 2.82,0.199 z M 127.826,25.99 a 16.69,16.69 0 0 1 2.082,-0.582 L 129.916,12.962 123,28.908 a 12.351,12.351 0 0 1 1.891,-1.487 14.204,14.204 0 0 1 2.936,-1.431 z m 3.079,8.652 3.842,-8.66 h -0.611 c -1.08,0.003 -2.159,0.085 -3.225,0.26 z m -0.01,18.523 -0.003,9.364 4.059,-9.364 z M 100.911,25.22 c 0.99,-0.153 1.984,-0.225 2.974,-0.238 v -0.005 h 1.307 l 6.006,-13.542 h -10.281 z m 11.286,13.753 -5.717,13.19 h 5.713 z m -11.186,-28.54 h 10.631 l 0.57,-1.2809998 V 0.56000018 A 14.721,14.721 0 0 0 108.188,1.8251702e-7 h -2.651 z m 7.369,26.982 h -4.495 c -0.993,-0.016 -1.99,-0.09 -2.98,-0.244 l -0.007,14.989 h 4.49 l 6.527,-15.055 a 21.219,21.219 0 0 1 -3.535,0.31 z m 3.823,-12.075 0.005,-13.712 -5.92,13.349 h 2.09 c 1.272,0.008 2.555,0.116 3.823,0.36 z m -0.016,37.705 0.006,-9.88 h -6.147 l -4.419,10.195 c 0.854,0.153 1.732,0.238 2.63,0.238 h 3.933 a 14.78,14.78 0 0 0 3.998,-0.553 z m -8.062,-26.63 h 4.191 a 19.746,19.746 0 0 0 3.885,-0.381 l 0.005,-9.67 a 19.66,19.66 0 0 0 -3.897,-0.382 h -2.462 l -4.54,10.234 c 0.934,0.132 1.878,0.196 2.82,0.199 z M 97.826,25.99 a 16.69,16.69 0 0 1 2.082,-0.582 L 99.916,12.962 93,28.908 a 12.351,12.351 0 0 1 1.891,-1.487 14.204,14.204 0 0 1 2.936,-1.431 z m 3.079,8.652 3.842,-8.66 h -0.611 c -1.08,0.003 -2.159,0.085 -3.225,0.26 z m -0.01,18.523 -0.003,9.364 4.059,-9.364 z M 89.387,10.433 A 15.012,15.012 0 0 0 83.294,2.4210002 l -3.08,6.943 V 10.433 Z M 82.428,1.8970002 A 14.817,14.817 0 0 0 80.217,0.88400018 V 6.8900002 Z M 80.206,26.604 v 7.53 l 2.791,-6.448 a 13.589,13.589 0 0 0 -1.72,-0.751 13.972,13.972 0 0 0 -1.074,-0.331 z m 9.456,-15.169 h -9.45 l -0.006,14.129 c 0.474,0.122 0.945,0.26 1.41,0.426 0.609,0.217 1.204,0.476 1.78,0.775 L 89.789,12.02 a 14.37,14.37 0 0 0 -0.13,-0.585 z m -5.385,15.822 c 0.09,0.056 0.183,0.106 0.273,0.164 a 12.808,12.808 0 0 1 3.173,2.903 14.305,14.305 0 0 0 1.526,-3.419 c 0.588,-1.942 0.815,-3.976 0.823,-6 v -6.022 c 0,-0.31 -0.013,-0.614 -0.031,-0.918 z M 56.37,14.885 v 6.036 c 0.008,2.018 0.235,4.05 0.82,5.987 a 14.58,14.58 0 0 0 1.283,3 l 8.009,-18.473 h -9.705 a 14.838,14.838 0 0 0 -0.41,3.45 z m 11.641,-4.452 h 10.631 l 0.57,-1.2809998 V 0.56000018 A 14.721,14.721 0 0 0 75.188,1.8251702e-7 h -2.651 z m -10.956,0 h 9.864 L 71.443,1.8251702e-7 H 71.255 C 64.617,1.8251702e-7 58.96,4.4030002 57.055,10.433 Z m 27.948,41.73 h 4.66 c 0.264,-1.109 0.41,-2.263 0.41,-3.45 v -7.226 c 0,-0.323 -0.011,-0.646 -0.025,-0.969 L 85,52.16 Z m -5.816,10.882 0.006,-9.88 H 73.046 L 68.627,63.36 c 0.854,0.153 1.732,0.238 2.63,0.238 h 3.933 a 14.78,14.78 0 0 0 3.998,-0.553 z M 66.868,36.978 A 16.114,16.114 0 0 1 64.823,36.404 14.27,14.27 0 0 1 61.889,34.973 12.808,12.808 0 0 1 58.716,32.07 14.305,14.305 0 0 0 57.19,35.49 c -0.588,1.936 -0.812,3.966 -0.82,5.987 v 6.419 h 5.66 L 66.867,36.98 Z M 88.35,31.197 a 15.003,15.003 0 0 1 1.722,3.577 V 27.62 a 15.003,15.003 0 0 1 -1.722,3.577 z m -7.07,4.263 c 0.955,-0.34 1.873,-0.781 2.725,-1.329 A 11.785,11.785 0 0 0 87.127,31.2 11.79,11.79 0 0 0 84.005,28.268 c -0.042,-0.026 -0.087,-0.05 -0.13,-0.08 l -3.246,7.486 c 0.217,-0.066 0.437,-0.135 0.651,-0.212 z M 64.826,25.99 a 16.69,16.69 0 0 1 2.082,-0.582 L 66.916,12.962 60,28.908 a 12.351,12.351 0 0 1 1.891,-1.487 14.204,14.204 0 0 1 2.936,-1.431 z m -6.453,30.15 3.212,-7.245 h -5.213 a 14.759,14.759 0 0 0 1.998,7.244 z m 8.522,-8.248 0.005,-8.509 -3.773,8.51 z m 22.492,5.273 h -4.82 l -4.102,9.457 a 15.008,15.008 0 0 0 8.922,-9.457 z m -9.197,7.57 3.284,-7.57 h -3.279 z m 4.36,-25.762 a 14.204,14.204 0 0 1 -2.934,1.431 c -0.465,0.167 -0.94,0.307 -1.415,0.426 l -0.008,15.33 h 3.714 l 5.964,-13.753 c -0.132,-0.99 -0.33,-1.966 -0.622,-2.921 A 14.352,14.352 0 0 0 87.723,32.068 12.808,12.808 0 0 1 84.551,34.97 Z M 62.437,34.131 c 0.851,0.548 1.772,0.99 2.725,1.328 0.569,0.204 1.15,0.366 1.74,0.498 l 0.006,-9.522 c -0.59,0.134 -1.175,0.296 -1.746,0.5 -0.955,0.338 -1.874,0.78 -2.725,1.328 a 11.785,11.785 0 0 0 -3.123,2.931 11.79,11.79 0 0 0 3.123,2.932 z m 5.458,19.034 -0.003,9.364 4.059,-9.364 z M 56.37,27.62 v 7.152 a 15.086,15.086 0 0 1 1.606,-3.403 l -0.114,-0.05 0.124,-0.286 A 15.165,15.165 0 0 1 56.37,27.617 Z M 66.887,62.94 66.895,48.895 H 62.68 l -3.665,8.263 a 14.996,14.996 0 0 0 7.872,5.784 z M 37.911,25.22 c 0.99,-0.153 1.984,-0.225 2.974,-0.238 v -0.005 h 1.307 L 48.198,11.435 H 37.917 Z m 11.286,13.753 -5.717,13.19 h 5.713 z M 38.011,10.433 h 10.631 l 0.57,-1.2809998 V 0.56000018 A 14.721,14.721 0 0 0 45.188,1.8251702e-7 h -2.651 z m 7.369,26.982 h -4.495 c -0.993,-0.016 -1.99,-0.09 -2.98,-0.244 L 37.898,52.16 h 4.49 l 6.527,-15.055 a 21.219,21.219 0 0 1 -3.535,0.31 z m 3.823,-12.075 0.005,-13.712 -5.92,13.349 h 2.09 c 1.272,0.008 2.555,0.116 3.823,0.36 z m -0.016,37.705 0.006,-9.88 H 43.046 L 38.627,63.36 c 0.854,0.153 1.732,0.238 2.63,0.238 h 3.933 a 14.78,14.78 0 0 0 3.998,-0.553 z m -8.062,-26.63 h 4.191 a 19.746,19.746 0 0 0 3.885,-0.381 l 0.005,-9.67 a 19.66,19.66 0 0 0 -3.897,-0.382 h -2.462 l -4.54,10.234 c 0.934,0.132 1.878,0.196 2.82,0.199 z M 34.826,25.99 a 16.69,16.69 0 0 1 2.082,-0.582 L 36.916,12.962 30,28.908 a 12.351,12.351 0 0 1 1.891,-1.487 14.204,14.204 0 0 1 2.936,-1.431 z m 3.079,8.652 3.842,-8.66 h -0.611 c -1.08,0.003 -2.159,0.085 -3.225,0.26 z m -0.01,18.523 -0.003,9.364 4.059,-9.364 z M 7.9110001,25.22 c 0.99,-0.153 1.984,-0.225 2.9739999,-0.238 v -0.005 h 1.307 L 18.198,11.435 H 7.9170001 Z M 19.197,38.973 13.48,52.163 h 5.713 z M 8.0110001,10.433 H 18.642 l 0.57,-1.2809998 V 0.56000018 A 14.721,14.721 0 0 0 15.188,1.8251702e-7 H 12.537 Z M 15.38,37.415 H 10.885 C 9.8920001,37.399 8.8950001,37.325 7.9050001,37.171 l -0.007,14.989 H 12.388 l 6.527,-15.055 a 21.219,21.219 0 0 1 -3.535,0.31 z m 3.823,-12.075 0.005,-13.712 -5.92,13.349 h 2.09 c 1.272,0.008 2.555,0.116 3.823,0.36 z m -0.016,37.705 0.006,-9.88 H 13.046 L 8.6270001,63.36 c 0.854,0.153 1.7319999,0.238 2.6299999,0.238 h 3.933 a 14.78,14.78 0 0 0 3.998,-0.553 z m -8.062,-26.63 h 4.191 a 19.746,19.746 0 0 0 3.885,-0.381 l 0.005,-9.67 A 19.66,19.66 0 0 0 15.309,25.982 H 12.847 L 8.3070001,36.216 c 0.934,0.132 1.8779999,0.196 2.8199999,0.199 z M 4.8260001,25.99 a 16.69,16.69 0 0 1 2.082,-0.582 l 0.008,-12.446 L 7.5279238e-8,28.908 A 12.351,12.351 0 0 1 1.8910001,27.421 a 14.204,14.204 0 0 1 2.936,-1.431 z m 3.079,8.652 3.8419999,-8.66 h -0.611 c -1.08,0.003 -2.1589999,0.085 -3.2249999,0.26 z m -0.01,18.523 -0.003,9.364 L 11.951,53.165 Z" />
  </g>
</svg>